<?xml version="1.0" encoding="UTF-8"?>
<svg xmlns="http://www.w3.org/2000/svg" id="Layer_1" data-name="Layer 1" viewBox="0 0 24 24">
  <path d="M10.437,22.878c-.63,.081-1.282,.122-1.937,.122-4.065,0-7.5-1.603-7.5-3.5v-2.851c1.419,1.411,4.213,2.351,7.5,2.351,.276,0,.5-.224,.5-.5s-.224-.5-.5-.5c-4.065,0-7.5-1.603-7.5-3.5v-2.851c1.419,1.411,4.213,2.351,7.5,2.351,.349,0,.693-.011,1.03-.032,.276-.017,.486-.254,.469-.529-.017-.276-.25-.479-.529-.469-.318,.02-.641,.03-.97,.03-4.065,0-7.5-1.603-7.5-3.5v-2.851c1.419,1.411,4.213,2.351,7.5,2.351s6.081-.94,7.5-2.351v1.851c0,.276,.224,.5,.5,.5s.5-.224,.5-.5V4.5C17,1.977,13.267,0,8.5,0S0,1.977,0,4.5v15c0,2.523,3.733,4.5,8.5,4.5,.697,0,1.391-.044,2.063-.13,.274-.035,.468-.286,.433-.56-.036-.274-.285-.46-.56-.433ZM8.5,1c4.065,0,7.5,1.603,7.5,3.5s-3.435,3.5-7.5,3.5S1,6.397,1,4.5,4.435,1,8.5,1Zm9,10c-3.584,0-6.5,2.916-6.5,6.5s2.916,6.5,6.5,6.5,6.5-2.916,6.5-6.5-2.916-6.5-6.5-6.5Zm0,12c-3.032,0-5.5-2.467-5.5-5.5s2.468-5.5,5.5-5.5,5.5,2.467,5.5,5.5-2.468,5.5-5.5,5.5Zm2.349-7.349c-.353-.986-1.279-1.651-2.349-1.651-1.379,0-2.5,1.122-2.5,2.5v.063c-.861,.222-1.5,1.006-1.5,1.937,0,1.103,.897,2,2,2h3.5c1.379,0,2.5-1.122,2.5-2.5,0-1.069-.665-1.996-1.651-2.349Zm-.849,3.849h-3.5c-.552,0-1-.449-1-1s.448-1,1-1c.276,0,.5-.224,.5-.5v-.5c0-.827,.673-1.5,1.5-1.5,.702,0,1.302,.479,1.459,1.165,.043,.187,.188,.333,.376,.376,.686,.157,1.165,.757,1.165,1.459,0,.827-.673,1.5-1.5,1.5Z"/>
</svg>
