<svg width="19" height="22" viewBox="0 0 19 22" fill="none" xmlns="http://www.w3.org/2000/svg">
<path d="M3.34776 17.1111C2.92479 17.1111 2.56271 16.9615 2.2615 16.6623C1.9603 16.3631 1.80969 16.0034 1.80969 15.5833V6.41664C1.80969 5.9965 1.9603 5.63684 2.2615 5.33765C2.56271 5.03846 2.92479 4.88886 3.34776 4.88886H15.6523C16.0753 4.88886 16.4374 5.03846 16.7386 5.33765C17.0398 5.63684 17.1904 5.9965 17.1904 6.41664V15.5833C17.1904 16.0034 17.0398 16.3631 16.7386 16.6623C16.4374 16.9615 16.0753 17.1111 15.6523 17.1111H3.34776ZM9.50004 11.7639L3.34776 7.94442V15.5833H15.6523V7.94442L9.50004 11.7639ZM9.50004 10.2361L15.6523 6.41664H3.34776L9.50004 10.2361Z" fill="#64748B"/>
</svg>
