<?xml version="1.0" encoding="UTF-8"?>
<svg xmlns="http://www.w3.org/2000/svg" id="Layer_1" data-name="Layer 1" viewBox="0 0 24 24">
  <path d="m12,12c1.654,0,3-1.346,3-3s-1.346-3-3-3-3,1.346-3,3,1.346,3,3,3Zm0-5c1.103,0,2,.897,2,2s-.897,2-2,2-2-.897-2-2,.897-2,2-2Zm4.48,8.777c.123.248.022.547-.225.67-.072.036-.147.052-.222.052-.184,0-.361-.102-.448-.277-.681-1.371-2.055-2.223-3.584-2.223-1.503,0-2.865.83-3.556,2.166-.126.245-.429.341-.674.215-.246-.127-.341-.429-.215-.674.863-1.67,2.566-2.707,4.444-2.707,1.912,0,3.629,1.064,4.48,2.777Zm5.019-1.272l-.749-.424c.166-.692.25-1.39.25-2.082s-.084-1.39-.25-2.082l.748-.423c.581-.329.999-.865,1.177-1.508s.095-1.318-.234-1.899c-.329-.581-.864-1-1.508-1.178-.644-.18-1.318-.096-1.899.234l-.751.425c-1.063-1.04-2.359-1.795-3.784-2.207v-.862c0-1.378-1.122-2.5-2.5-2.5s-2.5,1.122-2.5,2.5v.862c-1.425.412-2.72,1.167-3.784,2.207l-.751-.425c-.582-.329-1.256-.412-1.899-.234-.644.178-1.179.597-1.508,1.177-.329.582-.412,1.256-.234,1.899s.596,1.179,1.178,1.508l.748.423c-.166.692-.25,1.391-.25,2.082s.084,1.39.25,2.082l-.749.424c-1.199.68-1.622,2.208-.943,3.407.679,1.199,2.206,1.624,3.407.944l.751-.425c1.064,1.041,2.359,1.796,3.784,2.207v.862c0,1.378,1.122,2.5,2.5,2.5s2.5-1.122,2.5-2.5v-.862c1.424-.411,2.72-1.167,3.784-2.207l.751.425c1.198.679,2.728.255,3.407-.944.679-1.199.255-2.728-.943-3.407Zm.073,2.915c-.407.718-1.326.972-2.044.566l-1.085-.615c-.2-.114-.453-.075-.611.093-1.07,1.141-2.436,1.938-3.949,2.303-.224.054-.382.255-.382.486v1.247c0,.827-.673,1.5-1.5,1.5s-1.5-.673-1.5-1.5v-1.247c0-.231-.158-.432-.382-.486-1.513-.366-2.879-1.162-3.949-2.303-.097-.104-.23-.158-.365-.158-.084,0-.169.021-.247.065l-1.085.615c-.719.407-1.637.153-2.045-.566-.407-.72-.153-1.637.566-2.045l1.083-.613c.201-.114.297-.35.234-.572-.207-.727-.312-1.464-.312-2.19s.105-1.463.312-2.191c.063-.222-.034-.458-.235-.572l-1.082-.613c-.349-.198-.6-.519-.707-.905-.107-.386-.057-.791.141-1.14.197-.348.519-.599.905-.706.385-.107.79-.057,1.139.14l1.085.615c.201.115.454.076.611-.093,1.069-1.141,2.435-1.937,3.949-2.303.224-.054.382-.255.382-.486v-1.247c0-.827.673-1.5,1.5-1.5s1.5.673,1.5,1.5v1.247c0,.231.158.432.382.486,1.514.366,2.879,1.162,3.949,2.303.158.168.411.207.611.093l1.085-.615c.35-.197.756-.247,1.139-.14.386.107.708.358.905.707s.248.753.141,1.139c-.107.386-.358.708-.707.905l-1.083.613c-.201.114-.298.35-.235.572.207.728.312,1.465.312,2.191s-.105,1.463-.312,2.19c-.063.222.034.458.234.572l1.083.613c.72.408.974,1.325.566,2.045Z"/>
</svg>
