<?xml version="1.0" encoding="UTF-8"?>
<svg xmlns="http://www.w3.org/2000/svg" id="Layer_1" data-name="Layer 1" viewBox="0 0 24 24">
  <path d="m14,12c0-1.103-.897-2-2-2-.37,0-.712.108-1.01.283l-4.137-4.137c-.195-.195-.512-.195-.707,0s-.195.512,0,.707l4.137,4.137c-.176.297-.283.64-.283,1.01,0,1.103.897,2,2,2s2-.897,2-2Zm-3,0c0-.552.449-1,1-1s1,.448,1,1-.449,1-1,1-1-.448-1-1Zm-2.027,6.158c.189.201.179.518-.022.706l-1.83,1.718c-.507.439-1.134.656-1.755.656-.674,0-1.342-.256-1.846-.759C1.25,18.213,0,15.201,0,12c0-3.294,1.308-6.365,3.682-8.649C6.055,1.067,9.17-.115,12.478.009c6.334.247,11.503,5.61,11.522,11.955.005,1.642-.316,3.233-.954,4.732-.108.253-.402.373-.656.264-.254-.108-.373-.401-.264-.656.584-1.372.878-2.831.874-4.336-.017-5.817-4.755-10.733-10.561-10.959-3.024-.117-5.888.97-8.063,3.062-2.177,2.094-3.375,4.909-3.375,7.929,0,2.934,1.146,5.694,3.226,7.772.6.599,1.578.629,2.225.067l1.814-1.704c.202-.189.518-.18.707.022Zm13.946,3.367c.3.516.302,1.132.005,1.648-.297.518-.831.826-1.427.826h-1.997c-.276,0-.5-.224-.5-.5s.224-.5.5-.5h1.997c.337,0,.504-.227.56-.324.056-.098.167-.355-.002-.646l-4.497-7.709c-.237-.406-.877-.406-1.116,0l-4.496,7.709c-.17.291-.058.549-.002.646.056.098.223.324.56.324h1.997c.276,0,.5.224.5.5s-.224.5-.5.5h-1.997c-.597,0-1.13-.309-1.427-.826-.297-.517-.295-1.133.005-1.648l4.497-7.709c.299-.512.83-.816,1.422-.816s1.123.305,1.421.816l4.497,7.709Zm-5.918-.525c-.276,0-.5-.224-.5-.5v-3c0-.276.224-.5.5-.5s.5.224.5.5v3c0,.276-.224.5-.5.5Zm1,2c0,.552-.448,1-1,1s-1-.448-1-1,.448-1,1-1,1,.448,1,1Z"/>
</svg>
