<svg width="22" height="22" viewBox="0 0 22 22" fill="none" xmlns="http://www.w3.org/2000/svg">
<path d="M6.74786 17.6H3.55442V7.31839H6.74786V17.6ZM5.14942 5.91589C4.12849 5.91589 3.30005 5.07026 3.30005 4.04933C3.30005 3.55776 3.49599 3.09026 3.84317 2.74308C4.19036 2.39589 4.6613 2.19995 5.14942 2.19995C5.63755 2.19995 6.10849 2.39589 6.45567 2.74308C6.80286 3.09026 6.9988 3.5612 6.9988 4.04933C6.9988 5.07026 6.17036 5.91589 5.14942 5.91589ZM18.6966 17.6H15.51V12.595C15.51 11.4021 15.486 9.87245 13.8497 9.87245C12.1894 9.87245 11.935 11.1684 11.935 12.509V17.6H8.74505V7.31839H11.8079V8.72089H11.8525C12.2788 7.91308 13.3204 7.06058 14.8741 7.06058C18.1054 7.06058 18.7 9.18839 18.7 11.9521V17.6H18.6966Z" fill="#64748B"/>
</svg>
