<svg width="25" height="28" viewBox="0 0 25 28" fill="none" xmlns="http://www.w3.org/2000/svg">
<path d="M12.005 22.7405C9.57548 22.7405 7.51037 21.8902 5.80969 20.1895C4.10901 18.4888 3.25867 16.4237 3.25867 13.9942C3.25867 11.5646 4.10901 9.49951 5.80969 7.79883C7.51037 6.09815 9.57548 5.24781 12.005 5.24781C12.2318 5.24781 12.4545 5.25591 12.6731 5.27211C12.8918 5.2883 13.1064 5.3126 13.317 5.34499C12.6529 5.8147 12.1225 6.42614 11.7256 7.1793C11.3288 7.93246 11.1304 8.74635 11.1304 9.62099C11.1304 11.0787 11.6406 12.3178 12.661 13.3382C13.6814 14.3586 14.9205 14.8688 16.3782 14.8688C17.269 14.8688 18.087 14.6704 18.832 14.2736C19.5771 13.8767 20.1845 13.3463 20.6542 12.6822C20.6866 12.8928 20.7109 13.1074 20.7271 13.326C20.7433 13.5447 20.7514 13.7674 20.7514 13.9942C20.7514 16.4237 19.901 18.4888 18.2004 20.1895C16.4997 21.8902 14.4346 22.7405 12.005 22.7405ZM12.005 20.7969C13.4304 20.7969 14.7099 20.4041 15.8437 19.6186C16.9775 18.833 17.8035 17.8086 18.3218 16.5452C17.9979 16.6262 17.674 16.691 17.35 16.7396C17.0261 16.7881 16.7021 16.8124 16.3782 16.8124C14.386 16.8124 12.6893 16.1119 11.2883 14.7109C9.88727 13.3098 9.18675 11.6132 9.18675 9.62099C9.18675 9.29705 9.21105 8.97311 9.25964 8.64917C9.30823 8.32523 9.37302 8.00129 9.454 7.67735C8.19064 8.19566 7.16618 9.0217 6.38063 10.1555C5.59508 11.2893 5.2023 12.5688 5.2023 13.9942C5.2023 15.873 5.86638 17.4765 7.19453 18.8047C8.52268 20.1328 10.1262 20.7969 12.005 20.7969Z" fill="white"/>
</svg>
