<svg width="25" height="28" viewBox="0 0 25 28" fill="none" xmlns="http://www.w3.org/2000/svg">
<path d="M10.5031 17.4028C10.892 17.7917 11.3943 17.9821 12.0101 17.974C12.6258 17.9659 13.0795 17.7431 13.3712 17.3056L18.8156 9.13894L10.649 14.5834C10.2115 14.8751 9.98055 15.3207 9.95624 15.9202C9.93194 16.5197 10.1142 17.0139 10.5031 17.4028ZM12.0101 6.22228C12.9661 6.22228 13.8856 6.35596 14.7687 6.62332C15.6518 6.89068 16.4823 7.29172 17.2601 7.82644L15.4128 8.99311C14.8781 8.71765 14.3231 8.51105 13.7479 8.37332C13.1727 8.23559 12.5934 8.16672 12.0101 8.16672C9.85497 8.16672 8.0199 8.92424 6.50486 10.4393C4.98981 11.9543 4.23229 13.7894 4.23229 15.9445C4.23229 16.6251 4.32546 17.2975 4.5118 17.9619C4.69814 18.6262 4.96145 19.2501 5.30173 19.8334H18.7184C19.0911 19.2176 19.3625 18.5776 19.5326 17.9132C19.7028 17.2489 19.7878 16.5602 19.7878 15.8473C19.7878 15.2639 19.719 14.6968 19.5812 14.1459C19.4435 13.595 19.2369 13.0602 18.9615 12.5417L20.1281 10.6945C20.6142 11.4561 20.9991 12.2663 21.2826 13.1251C21.5662 13.9839 21.7161 14.8751 21.7323 15.7987C21.7485 16.7223 21.6432 17.6054 21.4163 18.448C21.1895 19.2906 20.8573 20.0926 20.4198 20.8542C20.2415 21.1459 19.9985 21.3727 19.6906 21.5348C19.3827 21.6968 19.0587 21.7778 18.7184 21.7778H5.30173C4.96145 21.7778 4.63738 21.6968 4.32951 21.5348C4.02164 21.3727 3.77858 21.1459 3.60034 20.8542C3.17905 20.1251 2.85497 19.3513 2.62812 18.533C2.40127 17.7148 2.28784 16.8519 2.28784 15.9445C2.28784 14.5996 2.54305 13.3398 3.05347 12.165C3.56388 10.9902 4.26064 9.96128 5.14374 9.07818C6.02685 8.19508 7.05983 7.49832 8.2427 6.9879C9.42557 6.47748 10.6814 6.22228 12.0101 6.22228Z" fill="#16A34A"/>
</svg>
