<svg width="145" height="34" viewBox="0 0 145 34" fill="none" xmlns="http://www.w3.org/2000/svg">
<path d="M90.0652 5.92531C85.5304 6.6307 81.6535 10.3975 80.7018 15.0249C79.4141 21.317 83.515 27.5104 89.7713 28.7095C95.4957 29.81 101.178 26.41 102.914 20.8091C103.04 20.4141 103.236 19.5676 103.362 18.9187C103.557 17.9311 103.571 17.6207 103.431 17.1552C103.04 15.829 102.62 15.6597 99.6665 15.6597H97.2872L97.2452 14.9685L97.2032 14.2631L95.1038 15.7444C93.9561 16.5485 93.0044 17.2822 93.0044 17.3527C93.0044 17.4373 93.9561 18.171 95.1038 18.9892L97.2032 20.4705L97.2732 19.6523L97.3432 18.834L98.4489 18.7917C99.9744 18.7353 99.9744 18.7353 99.6945 19.6382C99.3026 21.0066 98.6728 22.0365 97.6371 23.0664C95.9715 24.717 94.25 25.4365 91.9547 25.4506C88.1617 25.4647 84.8866 22.8266 84.0608 19.088C83.7669 17.7477 83.7809 16.7884 84.1168 15.4622C84.5087 13.9104 85.1385 12.7817 86.2862 11.6249C87.8398 10.0448 89.6033 9.29709 91.8847 9.26888C94.166 9.24066 96.3354 10.1718 97.889 11.8365L98.3089 12.2739H100.24C101.304 12.2739 102.172 12.2315 102.172 12.1892C102.172 12.1328 101.99 11.766 101.766 11.371C101.234 10.4398 100.296 9.33942 99.2746 8.45062C98.3509 7.64647 96.0555 6.4473 94.8239 6.12282C93.8021 5.85477 91.2129 5.75602 90.0652 5.92531Z" fill="white"/>
<path d="M20.2244 6.33444C16.8374 7.30788 14.8079 10.2423 15.3818 13.3461C15.5917 14.517 15.9556 15.2365 16.6974 15.9983C17.6911 16.9859 18.5589 17.4938 21.2322 18.6365C24.2133 19.8921 24.6892 20.1884 24.9831 20.922C25.417 22.0083 25.0811 23.0241 24.1014 23.6025C22.9257 24.2938 19.6506 23.6448 17.1173 22.234L16.5155 21.8954L16.0536 22.4456C15.4937 23.0946 14.8919 24.2797 14.7659 24.9992L14.668 25.5353L15.9696 26.1701C16.6974 26.5087 17.8591 26.9743 18.5449 27.1859C19.7066 27.5386 20.0005 27.5668 22.3239 27.5668C24.4373 27.5809 24.9691 27.5386 25.6129 27.3129C27.6564 26.6075 28.8321 25.634 29.6298 24.0257C30.0917 23.0805 30.1617 22.8124 30.2037 21.6556C30.2737 20.0614 30.0357 19.1444 29.2519 17.9452C28.2862 16.4921 27.2085 15.8008 23.5835 14.3195C21.2741 13.3743 20.7843 13.0921 20.4204 12.4996C20.0705 11.9212 20.0845 11.4274 20.4764 10.849C21.0222 10.0307 21.5541 9.8473 23.1636 9.93195C24.5492 10.0025 25.2351 10.1718 27.2085 10.9195L28.1882 11.3004L28.5101 10.9054C29.014 10.2846 29.5459 9.08548 29.6298 8.35187L29.6998 7.67469L28.7481 7.29378C27.5864 6.84233 26.2288 6.4332 25.2211 6.22158C24.0594 5.98174 21.2182 6.03818 20.2244 6.33444Z" fill="white"/>
<path d="M37.3417 6.29212C36.334 6.53196 35.2703 7.05395 34.3185 7.78756C32.9889 8.81743 31.9952 10.5245 31.3933 12.7959C31.0574 14.0515 31.0294 14.4324 31.0154 16.7884C31.0154 19.8921 31.2534 21.1477 32.2611 23.2216C33.3108 25.3942 35.1443 26.9037 37.3837 27.4398C38.5734 27.722 41.3866 27.722 42.4783 27.4398C45.4455 26.678 47.5169 24.4631 48.4406 21.0772C48.8185 19.6664 48.9725 15.8573 48.7066 14.0938C48.3567 11.5967 47.3209 9.43818 45.8514 8.06972C44.2698 6.63071 42.5763 6.0664 39.889 6.08051C38.9233 6.08051 37.7896 6.17926 37.3417 6.29212ZM41.4986 10.0025C42.6602 10.5245 43.416 11.893 43.7379 14.0515C44.1438 16.7743 43.8919 20.2589 43.1641 21.8531C42.4643 23.4191 41.5265 24.0257 39.889 24.0257C38.7273 24.0257 38.2375 23.8423 37.5236 23.1228C36.39 21.9801 35.9561 20.2307 35.9561 16.7884C35.9561 13.1344 36.4459 11.512 37.9015 10.2423C38.6433 9.59337 40.3229 9.4805 41.4986 10.0025Z" fill="white"/>
<path d="M51.03 6.32033C50.974 6.40497 50.946 10.7643 50.946 16.0124C50.946 26.41 50.918 25.9444 51.7438 26.7203C52.3736 27.3129 53.1854 27.3975 57.6641 27.3411C61.2471 27.2987 61.849 27.2705 62.2269 27.0589C63.1646 26.5369 63.5285 25.7892 63.7384 23.9411L63.8224 23.278H59.7635H55.7047V16.3369C55.7047 11.8788 55.6487 9.08547 55.5507 8.50705C55.3828 7.5336 54.9909 6.91286 54.2911 6.56016C53.8012 6.29211 51.1699 6.10871 51.03 6.32033Z" fill="white"/>
<path d="M126.035 6.36265C125.993 6.47551 125.979 10.8913 125.993 16.1676L126.035 25.7751L126.427 26.283C127.197 27.2988 127.183 27.2988 132.264 27.2988H136.812L137.4 26.9602C138.1 26.551 138.506 25.8315 138.702 24.6041C138.94 23.1228 139.388 23.278 134.783 23.278H130.738L130.696 15.7585C130.654 8.40829 130.654 8.239 130.346 7.59004C129.926 6.65892 129.296 6.36265 127.505 6.24979C126.371 6.17925 126.091 6.20746 126.035 6.36265Z" fill="white"/>
<path d="M8.46768 6.51784C8.42569 6.6166 8.41169 11.3286 8.42569 17L8.46768 27.2988L9.37743 27.3975C10.3292 27.5104 12.7505 27.3975 12.9604 27.2423C13.0304 27.2 13.0584 22.7137 13.0164 16.7884L12.9464 6.41908L10.7351 6.37676C9.05552 6.34855 8.50967 6.37676 8.46768 6.51784Z" fill="white"/>
<path d="M110.528 6.56016C110.416 6.67303 109.968 7.85809 109.534 9.19834C109.1 10.5386 107.63 15.0672 106.245 19.2573C104.873 23.4473 103.781 26.9461 103.809 27.0448C103.977 27.4822 107.924 27.6515 108.19 27.2282C108.246 27.1436 108.568 26.1137 108.904 24.9568L109.52 22.8548L112.935 22.883L116.364 22.9253L116.756 24.3079C117.498 26.9037 117.945 27.3975 119.653 27.4963C120.633 27.5386 122.466 27.2 122.466 26.9602C122.466 26.9178 121.99 25.3801 121.403 23.5602C120.815 21.7402 120.227 19.8639 120.087 19.3983C119.947 18.9328 119.709 18.171 119.555 17.7054C119.303 16.9436 118.239 13.6141 116.728 8.81742C116.434 7.8863 116.154 6.9834 116.098 6.82821C115.986 6.39087 115.692 6.34855 113.061 6.34855C111.185 6.34855 110.695 6.39087 110.528 6.56016ZM113.089 10.9054C113.089 10.9336 113.551 12.6971 114.125 14.8274C114.698 16.9577 115.188 18.7917 115.216 18.9046C115.244 19.088 114.922 19.1162 112.991 19.1585C110.346 19.2008 110.514 19.3419 111.059 17.5643C111.367 16.5768 112.487 12.3585 112.725 11.244C112.781 11.0324 112.879 10.8631 112.949 10.8631C113.033 10.8631 113.089 10.8772 113.089 10.9054Z" fill="white"/>
<path d="M65.5019 15.9419C65.5019 26.283 65.4739 25.9867 66.3277 26.7062C67.0835 27.3411 67.5454 27.3834 72.682 27.3411C77.2167 27.2987 77.4966 27.2846 78.0285 27.0025C78.8123 26.5934 79.2182 25.8033 79.3161 24.4772L79.4001 23.4191H74.7534H70.1207V21.0913V18.7635H73.4797C76.5589 18.7635 76.8528 18.7353 76.9508 18.5095C77.0767 18.1851 77.0767 15.3776 76.9368 15.039C76.8388 14.7851 76.6569 14.7851 73.5077 14.8274L70.1906 14.8838L70.1487 12.6548L70.1067 10.4398H74.3055H78.5043L78.6583 9.69211C78.7423 9.29709 78.7983 8.4224 78.7703 7.75933L78.7283 6.56016L72.1221 6.51784L65.5019 6.48962V15.9419Z" fill="white"/>
<path d="M90.597 12.4714C88.3716 13.205 87.014 15.0531 87.014 17.3527C87.014 19.3278 88.0637 21.049 89.8132 21.9378C90.555 22.3187 90.751 22.361 92.0246 22.361C93.2843 22.361 93.5082 22.3187 94.194 21.966C94.6139 21.7402 95.1038 21.4299 95.2717 21.2747L95.5796 20.9784L93.0603 19.2149C91.6887 18.2556 90.555 17.4091 90.555 17.3527C90.555 17.2963 90.9749 16.9577 91.5068 16.605C92.0246 16.2523 93.1583 15.4622 94.0261 14.8415L95.6076 13.7129L95.1458 13.3461C93.9281 12.4149 91.9267 12.034 90.597 12.4714Z" fill="white"/>
</svg>
